<?xml version="1.0" encoding="UTF-8" standalone="no"?> <svg xmlns="http://www.w3.org/2000/svg" viewBox="0 0 64 64"><g id="Layer_53" data-name="Layer 53"><path d="M58.63,41.69l-7.46-4.3,7.46-4.31a1.25,1.25,0,0,0,0-2.16l-7.45-4.31,7.41-4.28a1.22,1.22,0,0,0,.5-.48,1.25,1.25,0,0,0-.45-1.71l-26-15a1.27,1.27,0,0,0-1.25,0l-26,15a1.25,1.25,0,0,0,0,2.17l7.45,4.3L5.38,30.92a1.25,1.25,0,0,0,0,2.16l7.46,4.31-7.45,4.3a1.25,1.25,0,0,0,0,2.17l26,15A1.23,1.23,0,0,0,32,59a1.29,1.29,0,0,0,.63-.17l26-15a1.26,1.26,0,0,0,0-2.17ZM32,7.66,55.5,21.22,32,34.79,8.5,21.22ZM15.33,28.06l16,9.26a1.23,1.23,0,0,0,.62.17,1.29,1.29,0,0,0,.63-.17l16-9.26L55.5,32,32,45.57,8.5,32ZM32,56.34,8.5,42.78l6.83-4,16,9.26a1.22,1.22,0,0,0,1.24,0l16.05-9.26,6.83,4Z"/></g></svg>